<?xml version="1.0"?>
<svg width="640" height="480" xmlns="http://www.w3.org/2000/svg" xmlns:svg="http://www.w3.org/2000/svg">
 <!-- Created with SVG-edit - http://svg-edit.googlecode.com/ -->
 <defs>
  <filter id="svg_13_blur">
   <feGaussianBlur stdDeviation="0.8" in="SourceGraphic"/>
  </filter>
  <filter id="svg_14_blur">
   <feGaussianBlur stdDeviation="0.8" in="SourceGraphic"/>
  </filter>
  <filter id="svg_20_blur">
   <feGaussianBlur stdDeviation="0.8" in="SourceGraphic"/>
  </filter>
  <filter id="svg_45_blur">
   <feGaussianBlur stdDeviation="0.5" in="SourceGraphic"/>
  </filter>
  <filter id="svg_51_blur">
   <feGaussianBlur stdDeviation="0.8" in="SourceGraphic"/>
  </filter>
  <filter id="svg_59_blur">
   <feGaussianBlur stdDeviation="0.8" in="SourceGraphic"/>
  </filter>
 </defs>
 <g>
  <title>Layer 1</title>
  <polygon strokeWidth="5" strokecolor="#000000" fill="#000000" edge="0" orient="x" sides="5" shape="regularPoly" id="svg_56" cy="180" cx="101"/>
  <g stroke="null" id="svg_60">
   <ellipse stroke="#000000" filter="url(#svg_59_blur)" ry="180.999991" rx="297.999989" id="svg_59" cy="241.999991" cx="319.999993" stroke-linecap="null" stroke-linejoin="null" stroke-dasharray="null" stroke-width="5" fill="#ffff00"/>
   <path stroke="#000000" filter="url(#svg_13_blur)" d="m191.389472,179.204076c0.59809,3.306431 1.093223,4.350087 1.533049,5.05384c0.704644,1.127479 1.265439,1.853383 1.861718,2.58017c0.616462,0.751399 1.287983,1.489139 2.007577,2.21633c0.741372,0.74921 1.523349,1.467242 1.916954,1.821284c0.777813,0.699648 1.912423,1.675038 2.629368,2.258397c0.674745,0.549024 1.319957,1.060979 1.96994,1.477557c1.233274,0.790403 1.868643,1.095286 2.824559,1.385204c1.239513,0.37593 1.890804,0.39562 2.898429,0.432181c0.730251,0.026501 1.957973,0.04263 2.876843,-0.025655c0.492525,-0.036599 1.550105,-0.223502 2.091228,-0.453938c1.84262,-0.784682 2.437623,-1.39736 3.080378,-1.971503c0.683264,-0.610339 1.362365,-1.319098 2.040508,-2.101817c0.706957,-0.815974 1.40774,-1.701087 2.087574,-2.655895c1.409814,-1.980061 2.061712,-3.068405 2.713019,-4.17983c0.661933,-1.129536 1.299343,-2.306034 1.908769,-3.52765c0.61911,-1.241015 1.216378,-2.524426 1.767617,-3.860104c1.128483,-2.734363 1.610972,-4.18526 2.088436,-5.652455c0.480112,-1.475311 0.921518,-2.968904 1.328445,-4.467738c0.402986,-1.48433 0.772404,-2.957152 1.093191,-4.412341c0.614356,-2.786862 0.839893,-4.12364 1.047018,-5.407834c0.198893,-1.233162 0.362062,-2.423501 0.49562,-3.570135c0.128245,-1.101012 0.230802,-2.161634 0.307401,-3.182275c0.144168,-1.920893 0.182842,-2.827495 0.207732,-3.6988c0.023948,-0.838665 0.026405,-1.649119 -0.01412,-2.430575c-0.039345,-0.758788 -0.106211,-1.500337 -0.249374,-2.208937c-0.282783,-1.39968 -0.548367,-2.065274 -0.842063,-2.7072c-0.2966,-0.648272 -0.659205,-1.266003 -1.086921,-1.830316c-0.435614,-0.574712 -0.933883,-1.113712 -1.510393,-1.553277c-1.209869,-0.922474 -1.954623,-1.204646 -2.719991,-1.477552c-0.803404,-0.286466 -1.670324,-0.496882 -2.587885,-0.663048c-0.964723,-0.174705 -1.985623,-0.298349 -3.058424,-0.38601c-2.298465,-0.187815 -3.529266,-0.218679 -4.814011,-0.24462c-1.342964,-0.027116 -2.748295,-0.019943 -4.217477,0.040634c-1.538171,0.063419 -3.14876,0.172061 -4.829168,0.373083c-3.607381,0.431542 -5.529616,0.803564 -7.522849,1.259202c-2.074603,0.474243 -4.2121,1.078724 -6.381905,1.88203c-2.247051,0.831901 -4.54522,1.828822 -6.805378,3.156418c-4.773318,2.803804 -7.066007,4.800765 -9.389617,6.882103c-2.389176,2.140065 -4.716391,4.50196 -7.004566,6.994357c-2.310367,2.516568 -4.552185,5.138987 -6.722253,7.825478c-4.263522,5.278141 -6.228843,7.949442 -8.146028,10.556281c-1.872224,2.545713 -3.662944,5.070693 -5.368704,7.577993c-1.666439,2.449499 -3.261457,4.875363 -4.75702,7.300945c-2.892039,4.69047 -4.193225,7.045597 -5.44835,9.380808c-1.244195,2.314883 -2.430291,4.667483 -3.561886,7.071928c-1.145403,2.433783 -2.258993,4.949312 -3.326616,7.5706c-2.242328,5.505466 -3.303546,8.485258 -4.384611,11.55773c-1.102581,3.133628 -2.163719,6.325742 -3.158796,9.55052c-0.987303,3.199583 -1.914564,6.365986 -2.688277,9.495124c-1.456578,5.890875 -1.929382,8.673457 -2.286407,11.316389c-0.340013,2.516976 -0.532145,4.959665 -0.558358,7.328648c-0.025651,2.318124 0.08472,4.617816 0.382692,6.8854c0.609115,4.635421 1.227116,6.984413 1.8835,9.372598c0.673867,2.451782 1.491136,4.917354 2.460853,7.367426c0.99132,2.504651 2.11465,5.008194 3.448958,7.422851c2.749675,4.97601 4.481194,7.286919 6.265316,9.587664c1.813878,2.339129 3.772792,4.583904 5.839235,6.743175c2.08696,2.180708 4.267288,4.276964 6.545019,6.244503c4.564964,3.94327 6.977522,5.694991 9.428651,7.379544c2.479712,1.704206 5.082738,3.294012 7.835835,4.717074c2.848922,1.472587 5.88832,2.830473 9.153303,3.941372c7.083709,2.410185 11.07257,3.174407 15.256206,3.918789c4.364173,0.776491 8.913638,1.338234 13.602914,1.65671c4.790605,0.325352 9.67303,0.453336 14.591019,0.160675c9.889218,-0.588479 14.779014,-1.593075 19.5962,-2.700629c4.777746,-1.09848 9.431443,-2.574223 13.998154,-4.103889l4.446476,-1.665127l4.310541,-1.780861l4.158939,-1.876887" id="svg_13" stroke-width="5" fill="none"/>
   <path stroke="#000000" filter="url(#svg_20_blur)" d="m302.224555,141.034009c-0.23211,4.346874 -0.298897,5.076752 -0.387574,5.884346c-0.097739,0.890036 -0.217336,1.863482 -0.363865,2.921858c-0.159069,1.149038 -0.335912,2.391388 -0.816982,5.148447c-0.266669,1.528265 -0.578489,3.14506 -0.915965,4.848214c-0.353814,1.785586 -0.736857,3.643366 -1.14179,5.568519c-0.418207,1.988337 -0.854986,4.031583 -1.776153,8.257866c-0.473443,2.172178 -0.958022,4.370632 -1.449239,6.586182c-0.493035,2.223667 -0.989198,4.444572 -1.48686,6.652673c-0.492876,2.186786 -0.979338,4.34229 -1.943455,8.513975c-0.462913,2.003048 -0.921135,3.951311 -1.364519,5.856643c-0.434928,1.868986 -0.861272,3.710326 -1.270417,5.535274c-0.406401,1.812716 -0.815035,3.620839 -1.54752,7.282692c-0.371236,1.855816 -0.717041,3.737043 -1.055538,5.63501c-0.340476,1.909202 -0.667581,3.830034 -0.989676,5.756907c-0.322351,1.928319 -0.635352,3.856817 -1.265886,7.693107c-0.312618,1.902157 -0.625907,3.789114 -0.936356,5.65903c-0.307162,1.850245 -0.611165,3.678077 -0.908116,5.481709c-0.29242,1.776145 -0.581904,3.521779 -1.118113,6.918223c-0.259489,1.643746 -0.504778,3.255515 -0.746557,4.837129c-0.23779,1.555724 -0.471177,3.089786 -0.708936,4.604421c-0.235589,1.500807 -0.465848,2.992858 -0.984252,5.949606c-0.259266,1.478825 -0.538411,2.952126 -0.817173,4.421575c-0.277486,1.462667 -0.557908,2.914174 -0.826555,4.355085c-0.265647,1.424715 -0.537166,2.828519 -0.970307,5.588425c-0.210284,1.339756 -0.384766,2.658845 -0.547377,3.952438c-0.159325,1.267535 -0.301801,2.511904 -0.443863,3.730815c-0.139222,1.194412 -0.262074,2.36748 -0.577197,4.629672c-0.152927,1.097803 -0.328031,2.169586 -0.50816,3.219217c-0.176843,1.030448 -0.362653,2.039554 -0.545814,3.03081c-0.180034,0.974291 -0.367168,1.929831 -0.688705,3.805516c-0.156979,0.915747 -0.296121,1.818926 -0.432886,2.703917c-0.133685,0.865076 -0.260989,1.708941 -0.395248,2.526615c-0.130048,0.792028 -0.245481,1.56059 -0.566029,2.978091c-0.149927,0.662954 -0.325893,1.285684 -0.503454,1.876492c-0.169791,0.564937 -0.346634,1.098893 -0.512883,1.610529c-0.158894,0.489015 -0.327887,0.950524 -0.552084,1.848573c-0.105126,0.421096 -0.176332,0.834414 -0.228983,1.231912c-0.050242,0.379236 -0.079758,0.742992 -0.097245,1.087846c-0.016465,0.324638 -0.020901,0.628779 -0.022305,1.168916c-0.000606,0.234343 0,0.446535 0,0.639037c0,0.175255 0,0.335723 0,0.483905c0,0.138299 0,0.269232 0,0.518775c0,0.122723 0,0.242967 0,0.358307c0,0.107937 0,0.20603 0,0.291816c0,0.071 -0.039041,0.170746 0,0.170746c0.010977,0 0,-0.054185 0,-0.127439c0,-0.108971 0,-0.25734 0,-0.448809c0,-0.238251 -0.000287,-0.527004 0,-1.270691c0.000176,-0.463181 0.000463,-0.996574 0.009413,-1.608688c0.010227,-0.699629 0.030378,-1.495396 0.065877,-2.395474c0.039999,-1.013802 0.088804,-2.150347 0.273242,-4.820107c0.1072,-1.551854 0.24706,-3.248357 0.421909,-5.086465c0.18841,-1.980672 0.41658,-4.098778 0.694816,-6.349772c0.295148,-2.387884 0.614084,-4.911586 1.49731,-10.316602c0.473219,-2.895931 1.027936,-5.890443 1.628028,-8.972413c0.615297,-3.160015 1.280261,-6.370627 1.985623,-9.61517c0.711042,-3.270715 1.435454,-6.547761 3.008565,-13.015578c0.774319,-3.183613 1.582142,-6.320501 2.404389,-9.426782c0.818705,-3.092886 1.662873,-6.172038 2.52673,-9.249461c0.868005,-3.092191 1.756911,-6.202981 3.608083,-12.516512c0.94545,-3.224468 1.912821,-6.473867 2.884309,-9.731515c0.967786,-3.24521 1.929925,-6.454816 2.874928,-9.609618c0.922124,-3.07841 1.81955,-6.057224 3.476998,-11.646391c0.761778,-2.568822 1.472533,-4.995644 2.145602,-7.293561c0.640171,-2.185631 1.250697,-4.276241 1.844471,-6.285132c0.575298,-1.946412 1.132823,-3.848907 2.283611,-7.558491c0.573575,-1.848958 1.164413,-3.689725 1.767633,-5.518656c0.599964,-1.818991 1.210459,-3.61648 1.833462,-5.385674c0.614739,-1.745728 1.221085,-3.463658 2.498331,-6.744199c0.616047,-1.582319 1.246262,-3.108752 1.886815,-4.5804c0.624248,-1.434147 1.260174,-2.815255 1.915023,-4.137143c0.638256,-1.28838 1.266237,-2.54475 2.646104,-4.826669c0.665475,-1.10049 1.368092,-2.131944 2.076613,-3.11948c0.694289,-0.967687 1.403512,-1.888441 2.114203,-2.775951c0.698214,-0.871948 1.400513,-1.711383 2.779965,-3.339263c0.67342,-0.79472 1.335928,-1.574061 1.991893,-2.328993c0.640681,-0.737341 1.270609,-1.448304 1.897792,-2.118435c0.606857,-0.648431 1.188473,-1.283894 2.383999,-2.324681c0.559375,-0.486972 1.127813,-0.90617 1.692326,-1.283622c0.552483,-0.369401 1.115017,-0.698492 1.682913,-1.006583c0.570831,-0.309678 1.158351,-0.599789 2.375638,-1.19846c0.637362,-0.313455 1.292403,-0.637713 1.966781,-0.956715c0.686312,-0.324634 1.385132,-0.642879 2.098567,-0.93455c0.716339,-0.292854 1.434177,-0.595205 2.905402,-0.98175c0.727699,-0.191192 1.463757,-0.313981 2.200486,-0.387855c0.737208,-0.073926 1.481435,-0.09208 2.228726,-0.055411c0.754854,0.037041 1.522886,0.097947 3.064343,0.443266c0.793879,0.177848 1.59363,0.42832 2.399698,0.725847c0.825438,0.304681 1.657864,0.66868 2.4938,1.091542c0.858368,0.43421 1.737127,0.900595 3.471414,2.081705c0.906297,0.617224 1.810838,1.319902 2.718092,2.096275c0.943503,0.807397 1.892272,1.707118 2.840402,2.705763c0.993793,1.046742 2.023994,2.173014 4.026322,4.843085c1.081353,1.441986 2.137274,3.021862 3.19329,4.685683c1.083108,1.706493 2.137816,3.48487 3.155669,5.317337c1.020565,1.837357 2.030759,3.676555 3.758633,7.440286c0.834628,1.818024 1.57442,3.644371 2.241267,5.468792c0.65887,1.802674 1.245432,3.628495 1.761346,5.479868c0.518435,1.860513 1.010162,3.757963 1.748264,7.725949c0.382022,2.053795 0.68711,4.176833 0.961436,6.349772c0.279496,2.213869 0.511766,4.473665 0.707372,6.770878c0.198063,2.325977 0.378225,4.679873 0.596678,9.453039c0.110184,2.407404 0.178758,4.836265 0.191362,7.29172c0.012796,2.48964 -0.03325,5.022962 -0.166249,7.601995c-0.136126,2.639643 -0.293824,5.356722 -1.070727,10.963427c-0.408092,2.945024 -0.969478,5.951419 -1.631155,9.007518c-0.676069,3.122477 -1.469023,6.269829 -2.383999,9.417539c-0.92506,3.182298 -1.88372,6.392121 -4.349758,12.562467c-1.23471,3.089448 -2.638669,6.087905 -4.126518,9.035221c-1.494359,2.960242 -3.101678,5.863801 -4.794642,8.724955c-1.706302,2.883719 -3.475467,5.756728 -7.285857,11.380418c-1.935158,2.856063 -3.958482,5.679058 -6.038414,8.49591c-2.102428,2.847345 -4.273111,5.679171 -6.508954,8.495929c-2.260221,2.847458 -4.561574,5.710359 -9.410526,11.327887c-2.464315,2.854935 -5.006809,5.680223 -7.625662,8.473759c-2.64821,2.824856 -5.379258,5.614371 -8.209097,8.340778c-2.863887,2.75921 -5.779787,5.542037 -12.04827,10.684322c-3.196896,2.622546 -6.524462,5.100049 -9.910837,7.50781c-3.390842,2.410937 -6.826741,4.707285 -10.277893,6.898327c-3.41085,2.165452 -6.785099,4.261126 -13.445177,7.962349c-3.186956,1.771091 -6.329143,3.391484 -9.432496,4.890694c-3.053654,1.475199 -6.11061,2.839811 -9.187813,4.092822c-3.085898,1.256562 -6.217411,2.480678 -12.748127,4.560701c-3.383647,1.077682 -6.868926,2.042766 -10.419013,2.951412c-3.583912,0.917288 -7.199286,1.748151 -10.823675,2.485976c-3.60068,0.732996 -7.164712,1.442094 -14.133914,2.360791c-3.346153,0.441105 -6.603885,0.729088 -9.761851,0.927171c-3.054659,0.1916 -6.009361,0.281633 -8.858442,0.284432c-2.742375,0.002687 -5.379322,-0.029065 -10.308367,-0.390735c-2.296391,-0.168491 -4.471573,-0.416493 -6.521494,-0.698144c-1.926223,-0.264648 -3.716799,-0.584458 -5.373402,-0.897617l-1.516488,-0.320543l-1.372193,-0.323004" id="svg_20" stroke-linecap="null" stroke-linejoin="null" stroke-dasharray="null" stroke-width="5" fill="none"/>
   <text stroke="#000000" filter="url(#svg_45_blur)" transform="matrix(1.7722078339859375,0,0,2.682458612220074,-342.9748927759471,-161.1603459456453) " xml:space="preserve" text-anchor="middle" font-family="Monospace" font-size="24" id="svg_45" y="179.180328" x="460.829596" stroke-linecap="null" stroke-linejoin="null" stroke-dasharray="null" stroke-width="0" fill="#000000">.</text>
   <path stroke="#000000" filter="url(#svg_51_blur)" d="m437.677757,144.169019c-1.926675,4.916415 -2.3539,5.815698 -2.85624,6.816963c-0.561853,1.119885 -1.201862,2.351077 -1.923419,3.696267c-0.790866,1.474421 -1.668246,3.071263 -2.6437,4.786663c-2.191536,3.853911 -3.455299,5.960585 -4.786471,8.200581c-1.395433,2.348135 -2.850731,4.779686 -4.33371,7.29298c-1.513237,2.564599 -3.04167,5.165158 -4.533794,7.814474c-2.964383,5.263347 -4.343859,7.90096 -5.672155,10.515521c-1.307508,2.573609 -2.549913,5.140482 -3.725479,7.700684c-1.158795,2.523663 -2.262718,5.038516 -3.285283,7.558465c-2.007083,4.946195 -2.884979,7.437048 -3.739536,9.905877c-0.846443,2.445343 -1.638612,4.892487 -2.386275,7.337235c-0.742643,2.428271 -1.44561,4.857684 -2.106162,7.289813c-1.313587,4.83648 -1.906973,7.267227 -2.491052,9.692363c-0.581989,2.416536 -1.133693,4.832719 -1.645993,7.24874c-0.509668,2.403595 -0.989349,4.802272 -1.405881,7.201318c-0.824706,4.749946 -1.133204,7.121584 -1.421594,9.469028c-0.284373,2.314891 -0.5196,4.597294 -0.710946,6.836277c-0.18657,2.183121 -0.33569,4.306828 -0.430834,6.362197c-0.178836,3.863629 -0.193381,5.66319 -0.171943,7.371814c0.020407,1.627105 0.090748,3.181549 0.250777,4.658654c0.154168,1.422867 0.368119,2.799726 0.730946,4.089761c0.714962,2.542053 1.323492,3.712246 1.952781,4.8518c0.634636,1.149231 1.363655,2.234852 2.151509,3.261685c0.788261,1.027363 1.627702,1.994573 2.511649,2.882434c1.729766,1.73743 2.646712,2.467431 3.554595,3.160554c0.898031,0.685616 1.826511,1.307911 2.789102,1.858398c0.973908,0.556965 1.994085,1.061025 3.069188,1.479147c2.2644,0.880659 3.511745,1.179742 4.805467,1.47352c1.340968,0.304517 2.738925,0.544008 4.185648,0.712703c1.486832,0.173373 3.018251,0.286158 4.585789,0.28603c3.232962,-0.000257 4.893229,-0.189658 6.568531,-0.435451c1.699074,-0.249281 3.409979,-0.611927 5.111333,-1.123575c1.721489,-0.517709 3.445991,-1.153234 5.111333,-2.024344c3.402788,-1.779934 4.995293,-3.074551 6.569698,-4.419146c1.59891,-1.365526 3.130871,-2.892995 4.603157,-4.530662c1.484281,-1.651025 2.906607,-3.399949 4.243017,-5.241773c2.66096,-3.667364 3.839185,-5.621346 4.976161,-7.589555c1.139853,-1.973176 2.206516,-4.033096 3.174589,-6.197842c0.989485,-2.212652 1.912157,-4.552637 2.694393,-7.05119c1.664039,-5.31511 2.248905,-8.285476 2.845575,-11.35694c0.613821,-3.159686 1.129649,-6.409941 1.573943,-9.707635c0.445027,-3.303256 0.817433,-6.597268 1.093774,-9.84987c0.529342,-6.230749 0.642451,-9.172694 0.706631,-11.982016c0.061439,-2.689464 0.040923,-5.274374 -0.096039,-7.754408c-0.132349,-2.396361 -0.345758,-4.721316 -0.736292,-6.948484c-0.762154,-4.346373 -1.432883,-6.414153 -2.127058,-8.437983c-0.690593,-2.013429 -1.49093,-3.958586 -2.360928,-5.837544c-0.861532,-1.860681 -1.785398,-3.65198 -2.761069,-5.363448c-1.895169,-3.324379 -2.910217,-4.844132 -3.898426,-6.318312c-0.960827,-1.433348 -1.928711,-2.792845 -2.899823,-4.07711c-0.94061,-1.243947 -1.87658,-2.420121 -2.819768,-3.508217c-1.783553,-2.057532 -2.683131,-2.951807 -3.552207,-3.79407c-0.831029,-0.805378 -1.647811,-1.53918 -2.446303,-2.201327c-0.757622,-0.628243 -1.491011,-1.195126 -2.206191,-1.679832c-1.29725,-0.879212 -1.914192,-1.199909 -2.489885,-1.481952c-0.53515,-0.262182 -1.045415,-0.471492 -1.528596,-0.635268c-0.451458,-0.15303 -0.881179,-0.268612 -1.288512,-0.350822c-0.746795,-0.150723 -1.095863,-0.182962 -1.425149,-0.217725c-0.311022,-0.032834 -0.604595,-0.05423 -0.880338,-0.067951c-0.257805,-0.012828 -0.497972,-0.018479 -0.720281,-0.020544c-0.391267,-0.003641 -0.560442,-0.003553 -0.712601,0.001407c-0.13623,0.004437 -0.258457,0.012531 -0.36413,0.041081c-0.0949,0.02564 -0.183015,0.06472 -0.244101,0.13591c-0.128658,0.149927 -0.153706,0.284856 -0.177831,0.418596c-0.025862,0.143264 -0.033895,0.298263 -0.022687,0.455119c0.011289,0.158182 0.036228,0.317931 0.097369,0.455119c0.118238,0.265309 0.236828,0.352759 0.356884,0.418596c0.12931,0.070901 0.283803,0.110149 0.453521,0.13591c0.186081,0.028244 0.391213,0.037118 0.613577,0.041081c0.497917,0.008874 0.773878,0.006679 1.068264,-0.004212c0.314197,-0.011623 0.649805,-0.038605 1.004383,-0.102714c0.379652,-0.068642 0.785058,-0.169901 1.204494,-0.339762c0.940664,-0.380931 1.43291,-0.708009 1.958697,-1.054925c0.563373,-0.371704 1.148048,-0.800563 1.764692,-1.26106c0.650945,-0.486104 1.328404,-1.009873 2.044804,-1.545514c1.525991,-1.14096 2.346274,-1.72158 3.201238,-2.312118c0.884056,-0.610641 1.804014,-1.225774 2.757107,-1.848921c0.980692,-0.641192 1.993298,-1.289385 3.037193,-1.943742c2.164779,-1.356998 3.293967,-2.04132 4.455666,-2.74617c1.202758,-0.729759 2.457375,-1.483109 3.770826,-2.267702c1.379151,-0.823833 2.833798,-1.687926 4.371051,-2.599555c3.353724,-1.988826 5.183328,-3.072365 7.106801,-4.208454c2.002497,-1.182756 4.071454,-2.400806 6.195771,-3.639377c2.161794,-1.260425 4.349531,-2.529185 6.555912,-3.781604c4.386329,-2.489824 6.554745,-3.674742 8.687285,-4.830733c2.087247,-1.131436 4.129311,-2.217804 6.117073,-3.261693c1.922578,-1.00964 3.777447,-1.970628 5.556848,-2.882426c3.296192,-1.689035 4.806254,-2.449041 6.224672,-3.161953c1.333533,-0.670248 2.590864,-1.296522 3.780161,-1.87895c1.125144,-0.551009 2.195119,-1.068581 3.219936,-1.547098c1.926757,-0.899668 2.848886,-1.304447 3.741897,-1.688433c0.860039,-0.369815 1.689114,-0.712334 2.48633,-1.022444c0.758464,-0.295048 1.479776,-0.563741 2.16619,-0.785396c1.237683,-0.399683 1.797311,-0.529162 2.311999,-0.634922c0.471431,-0.09687 0.905847,-0.155915 1.301836,-0.203852l0.360439,-0.032135l0.32668,-0.019491l0.294604,-0.010007" id="svg_51" stroke-linecap="round" stroke-linejoin="null" stroke-dasharray="null" stroke-width="5" fill="none"/>
   <path stroke="#000000" filter="url(#svg_14_blur)" d="m148.519298,303.564614c2.75206,-0.009845 3.248861,0.005355 4.378509,-0.153912c0.640139,-0.090258 1.328253,-0.237255 2.049921,-0.476502c1.605516,-0.532246 2.451328,-0.991538 3.347366,-1.479201c0.953858,-0.519113 1.945273,-1.120405 2.989404,-1.76382c1.100195,-0.677966 2.247394,-1.409422 3.459943,-2.151681c2.588587,-1.584564 3.987073,-2.377099 5.44555,-3.211213c1.529188,-0.874545 3.139044,-1.789372 4.818191,-2.794419c1.773105,-1.06128 3.638764,-2.208496 5.571034,-3.514733c4.222455,-2.854428 6.445996,-4.574228 8.767819,-6.404352c2.420727,-1.908075 4.885249,-3.952513 7.379432,-6.113381c2.546068,-2.205809 5.098086,-4.495168 7.614685,-6.889083c5.041957,-4.796152 7.443953,-7.314031 9.807848,-9.827343c2.341335,-2.489339 4.613507,-5.011444 6.822641,-7.55029c2.182362,-2.50808 4.302404,-5.024277 6.352102,-7.55029c4.003619,-4.93401 5.89163,-7.408102 7.738941,-9.847052c1.816758,-2.398612 3.576158,-4.789182 5.274594,-7.177207c1.673898,-2.353511 3.298688,-4.701404 4.851122,-7.066385c3.050941,-4.647783 4.465909,-7.011196 5.855445,-9.346332c1.366226,-2.295963 2.672541,-4.571128 3.932029,-6.802273c1.223366,-2.167171 2.387541,-4.276504 3.508557,-6.303601c2.089297,-3.77802 3.055153,-5.510539 3.974724,-7.136568c0.86716,-1.533366 1.692326,-2.974935 2.47183,-4.336616c0.737351,-1.288051 1.439107,-2.50637 2.095408,-3.671717c1.222872,-2.171361 1.779375,-3.20226 2.304544,-4.197885c0.503901,-0.955296 0.975939,-1.880165 1.416292,-2.775951c0.422451,-0.859365 0.818162,-1.690613 1.181006,-2.498902c0.682738,-1.520966 0.977359,-2.252845 1.257526,-2.955104c0.267913,-0.67155 0.513521,-1.317356 0.741866,-1.933744c0.216283,-0.583768 0.414187,-1.137418 0.600698,-1.656705c0.335593,-0.934348 0.487324,-1.346891 0.627375,-1.723811c0.127287,-0.342557 0.243438,-0.650662 0.340348,-0.929007c0.085454,-0.245517 0.161367,-0.459861 0.19918,-0.651973c0.057693,-0.293168 0.042663,-0.416094 -0.001372,-0.495797c-0.041642,-0.075335 -0.124033,-0.119689 -0.219602,-0.134828c-0.114109,-0.018069 -0.251831,-0.001987 -0.407773,0.031399c-0.379118,0.081164 -0.596965,0.160473 -0.835106,0.247899c-0.259425,0.095246 -0.536369,0.213225 -0.826555,0.361998c-0.311023,0.159449 -0.637522,0.347626 -0.967723,0.583636c-0.724252,0.517667 -1.085437,0.863329 -1.458269,1.229649c-0.387638,0.38089 -0.770521,0.79665 -1.146512,1.239296c-0.381208,0.448809 -0.752301,0.915804 -1.099477,1.405519c-0.682738,0.963056 -0.975588,1.468778 -1.257526,1.974993c-0.284554,0.510903 -0.555195,1.051017 -0.823411,1.621614c-0.282735,0.601485 -0.568533,1.252166 -0.870478,1.954059c-0.681015,1.583023 -1.058968,2.483881 -1.468049,3.457468c-0.439363,1.045667 -0.904127,2.165105 -1.386472,3.361433c-0.51049,1.266154 -1.040732,2.605938 -1.574707,4.026322c-1.144454,3.044319 -1.711647,4.687595 -2.296167,6.392872c-0.603108,1.759518 -1.206103,3.574329 -1.814651,5.433696c-0.619748,1.893599 -1.239098,3.818827 -1.861718,5.766141c-1.256233,3.92901 -1.882874,5.899667 -2.505287,7.873707c-0.623274,1.976764 -1.241491,3.960489 -1.841328,5.95822c-0.601959,2.004805 -1.194313,4.023692 -1.747226,6.069042c-1.116134,4.128811 -1.608292,6.241535 -2.088436,8.369505c-0.481883,2.135664 -0.930085,4.285466 -1.348851,6.442125c-0.417729,2.151305 -0.807903,4.299876 -1.160632,6.442125c-0.695358,4.223221 -0.97996,6.307095 -1.254734,8.354728c-0.268791,2.002992 -0.508559,3.957135 -0.721476,5.852942c-0.205083,1.826065 -0.386026,3.576509 -0.533257,5.243458c-0.268487,3.040035 -0.351309,4.403464 -0.421031,5.662318c-0.064362,1.161946 -0.107535,2.235832 -0.134882,3.228441c-0.025304,0.918397 -0.036696,1.770584 -0.04078,2.563552c-0.007403,1.43813 -0.004723,2.09712 0,2.720338c0.004467,0.588779 0.013322,1.14468 0.04078,1.667776c0.025895,0.493205 0.059384,0.959467 0.134882,1.390746c0.139668,0.797909 0.272939,1.153848 0.419643,1.479201c0.142173,0.315282 0.315155,0.601217 0.512867,0.849595c0.194601,0.244489 0.4124,0.461359 0.654035,0.627952c0.483175,0.333112 0.76457,0.416812 1.041434,0.495797c0.278954,0.079586 0.565486,0.12759 0.853215,0.158834c0.286772,0.031132 0.572251,0.043269 0.853215,0.048022c0.540884,0.00915 0.797246,0.007722 1.042838,-0.003288c0.235461,-0.010559 0.46261,-0.032672 0.67441,-0.096026c0.206966,-0.061907 0.41149,-0.155978 0.580324,-0.317687c0.370151,-0.354549 0.49838,-0.664871 0.627359,-0.994883c0.14463,-0.370068 0.261148,-0.808017 0.360738,-1.303927c0.110742,-0.551485 0.200073,-1.171265 0.266637,-1.858024c0.152751,-1.575996 0.184709,-2.477784 0.197967,-3.450911c0.014248,-1.046456 -0.0142,-2.169398 -0.116055,-3.361423c-0.108636,-1.271311 -0.281618,-2.622377 -0.586594,-4.026332c-0.669926,-3.084074 -1.244044,-4.710404 -1.909981,-6.387931c-0.704181,-1.773872 -1.574994,-3.579684 -2.644365,-5.361672c-1.129042,-1.881396 -2.452764,-3.773952 -4.055934,-5.52789c-3.5031,-3.832533 -5.766401,-5.465495 -8.158584,-7.111946c-2.518418,-1.733346 -5.271595,-3.318145 -8.218527,-4.75217c-3.062174,-1.490098 -6.30478,-2.841633 -9.724197,-3.921053c-7.127266,-2.249886 -10.937305,-2.863625 -14.801718,-3.442691c-3.916122,-0.586816 -7.887066,-0.961431 -11.874522,-1.178348c-3.977899,-0.216391 -7.931181,-0.286611 -11.827455,-0.181004c-7.541548,0.204414 -11.138096,0.576652 -14.605139,0.970261c-3.346057,0.379875 -6.561923,0.861469 -9.641089,1.442461c-2.959058,0.558333 -5.787238,1.185299 -8.464757,1.941132c-4.999198,1.411216 -7.272686,2.303544 -9.421686,3.193148c-2.053272,0.849971 -3.989012,1.768818 -5.814138,2.740864c-1.759177,0.936922 -3.430737,1.922758 -5.014236,2.962487c-3.053175,2.004721 -4.47628,3.099894 -5.862409,4.183108c-1.35611,1.059758 -2.652271,2.144889 -3.870867,3.26908c-1.184796,1.093003 -2.306865,2.200839 -3.306234,3.379901c-1.899563,2.241112 -2.662386,3.466824 -3.347358,4.693682c-0.676324,1.211377 -1.21988,2.51677 -1.733106,3.854571l-0.455709,1.405514l-0.403433,1.48433l-0.356382,1.574193" id="svg_14" stroke-width="5" fill="none"/>
  </g>
 </g>
</svg>