<?xml version="1.0" encoding="utf-8"?>
<svg viewBox="0 0 500 500" xmlns="http://www.w3.org/2000/svg" xmlns:bx="https://boxy-svg.com">
  <defs>
    <pattern id="pattern-0" x="0" y="0" width="20" height="20" patternUnits="userSpaceOnUse" viewBox="0 0 100 100">
      <path d="M 0 0 L 50 0 L 50 100 L 0 100 Z" style="fill: black;"/>
    </pattern>
  </defs>
  <path d="M 71.278 344.674" style="fill: none; stroke: black;"/>
  <path d="M 249.925 380.172 L 249.943 420.733" style="fill: none; stroke: rgb(29, 36, 224);" bx:origin="0 0"/>
  <path d="M 287.041 366.81 L 287.059 407.37" style="fill: none; stroke: rgb(84, 89, 224);" bx:origin="0 0"/>
  <path d="M 212.522 366.81 L 212.541 407.37" style="fill: none; stroke: rgb(29, 36, 224);" bx:origin="0 0"/>
  <path d="M 212.315 366.65 L 249.773 380.314" style="fill: none; stroke: rgb(29, 36, 224);" bx:origin="0 0"/>
  <path d="M 249.722 380.319 L 286.773 367.21" style="fill: none; stroke: rgb(84, 89, 224);" bx:origin="0 0"/>
  <path d="M 211.815 407.019 L 249.274 420.683" style="fill: none; stroke: rgb(29, 36, 224);" bx:origin="0 0"/>
  <path d="M 249.223 420.688 L 286.684 407.168" style="fill: none; stroke: rgb(84, 89, 224);" bx:origin="0 0"/>
  <path d="M 84.59 138.564" style="fill: none; stroke: black;"/>
  <path d="M 324.036 353.342 L 324.054 393.902" style="fill: none; stroke: rgb(84, 89, 224);" bx:origin="0 0"/>
  <path d="M 286.804 339.9 L 323.854 353.482" style="fill: none; stroke: rgb(84, 89, 224);" bx:origin="0 0"/>
  <path d="M 286.717 366.851 L 323.768 353.742" style="fill: none; stroke: rgb(84, 89, 224);" bx:origin="0 0"/>
  <path d="M 286.218 407.22 L 323.679 393.7" style="fill: none; stroke: rgb(84, 89, 224);" bx:origin="0 0"/>
  <path d="M 175.055 352.544 L 175.074 393.104" style="fill: none; stroke: rgb(29, 36, 224);" bx:origin="0 0"/>
  <path d="M 175.01 352.381 L 212.469 339.189" style="fill: none; stroke: rgb(29, 36, 224);" bx:origin="0 0"/>
  <path d="M 249.777 339.361 L 249.795 379.922" style="fill: none; stroke: rgb(29, 36, 224);" bx:origin="0 0"/>
  <path d="M 286.893 325.999 L 286.911 366.559" style="fill: none; stroke: rgb(84, 89, 224);" bx:origin="0 0"/>
  <path d="M 212.523 325.999 L 212.542 366.559" style="fill: none; stroke: rgb(29, 36, 224);" bx:origin="0 0"/>
  <path d="M 212.167 325.839 L 249.625 339.503" style="fill: none; stroke: rgb(29, 36, 224);" bx:origin="0 0"/>
  <path d="M 249.574 339.508 L 286.625 326.399" style="fill: none; stroke: rgb(84, 89, 224);" bx:origin="0 0"/>
  <path d="M 405.44 323.548 L 405.458 364.108" style="fill: none; stroke: rgb(176, 84, 30);" bx:origin="0 0"/>
  <path d="M 442.573 310.276 L 442.591 350.836" style="fill: none; stroke: rgb(176, 84, 30);" bx:origin="0 0"/>
  <path d="M 405.341 296.834 L 442.391 310.416" style="fill: none; stroke: rgb(176, 84, 30);" bx:origin="0 0"/>
  <path d="M 405.254 323.785 L 442.305 310.676" style="fill: none; stroke: rgb(176, 84, 30);" bx:origin="0 0"/>
  <path d="M 404.755 364.154 L 442.216 350.634" style="fill: none; stroke: rgb(176, 84, 30);" bx:origin="0 0"/>
  <path d="M 479.935 297.044 L 479.953 337.604" style="fill: none; stroke: rgb(176, 84, 30);" bx:origin="0 0"/>
  <path d="M 442.616 310.553 L 479.667 297.444" style="fill: none; stroke: rgb(176, 84, 30);" bx:origin="0 0"/>
  <path d="M 442.117 350.922 L 479.578 337.402" style="fill: none; stroke: rgb(176, 84, 30);" bx:origin="0 0"/>
  <path d="M 442.7 270.126 L 442.718 310.687" style="fill: none; stroke: rgb(176, 84, 30);" bx:origin="0 0"/>
  <path d="M 479.816 256.764 L 479.834 297.324" style="fill: none; stroke: rgb(176, 84, 30);" bx:origin="0 0"/>
  <path d="M 405.09 256.604 L 442.548 270.268" style="fill: none; stroke: rgb(176, 84, 30);" bx:origin="0 0"/>
  <path d="M 442.497 270.273 L 479.548 257.164" style="fill: none; stroke: rgb(176, 84, 30);" bx:origin="0 0"/>
  <path d="M 93.416 321.732 L 93.434 362.293" style="fill: none; stroke: rgb(171, 72, 14);" bx:origin="0 0"/>
  <path d="M 138.049 297.407 L 138.067 337.967" style="fill: none; stroke: rgb(29, 36, 224);" bx:origin="0 0"/>
  <path d="M 55.806 308.21 L 93.264 321.874" style="fill: none; stroke: rgb(171, 72, 14);" bx:origin="0 0"/>
  <path d="M 55.968 308.207 L 93.427 295.015" style="fill: none; stroke: rgb(171, 72, 14);" bx:origin="0 0"/>
  <path d="M 55.306 348.579 L 92.765 362.243" style="fill: none; stroke: rgb(171, 72, 14);" bx:origin="0 0"/>
  <path d="M 56.33 307.99 L 56.348 348.551" style="fill: none; stroke: rgb(171, 72, 14);" bx:origin="0 0"/>
  <path d="M 19.145 294.628 L 19.164 335.188" style="fill: none; stroke: rgb(171, 72, 14);" bx:origin="0 0"/>
  <path d="M 18.72 294.468 L 56.178 308.132" style="fill: none; stroke: rgb(171, 72, 14);" bx:origin="0 0"/>
  <path d="M 18.875 334.837 L 55.679 348.501" style="fill: none; stroke: rgb(171, 72, 14);" bx:origin="0 0"/>
  <path d="M 56.215 267.555 L 56.233 308.116" style="fill: none; stroke: rgb(171, 72, 14);" bx:origin="0 0"/>
  <path d="M 93.621 254.193 L 93.639 294.753" style="fill: none; stroke: rgb(171, 72, 14);" bx:origin="0 0"/>
  <path d="M 19.102 254.193 L 19.121 294.753" style="fill: none; stroke: rgb(171, 72, 14);" bx:origin="0 0"/>
  <path d="M 18.895 254.033 L 56.353 267.697" style="fill: none; stroke: rgb(171, 72, 14);" bx:origin="0 0"/>
  <path d="M 55.873 267.727 L 93.334 254.207" style="fill: none; stroke: rgb(171, 72, 14);" bx:origin="0 0"/>
  <path d="M 18.897 173.35 L 56.355 187.014" style="fill: none; stroke: rgb(171, 72, 14);" bx:origin="0 0"/>
  <path d="M 56.304 187.019 L 93.355 173.91" style="fill: none; stroke: rgb(171, 72, 14);" bx:origin="0 0"/>
  <path d="M 56.507 146.705 L 56.525 187.266" style="fill: none; stroke: rgb(171, 72, 14);" bx:origin="0 0"/>
  <path d="M 19.2 133.343 L 19.123 173.903" style="fill: none; stroke: rgb(171, 72, 14);" bx:origin="0 0"/>
  <path d="M 18.897 133.183 L 56.355 146.847" style="fill: none; stroke: rgb(171, 72, 14);" bx:origin="0 0"/>
  <path d="M 56.391 79.539 L 93.441 93.121" style="fill: none; stroke: rgb(171, 72, 14);" bx:origin="0 0"/>
  <path d="M 56.304 106.49 L 93.355 93.381" style="fill: none; stroke: rgb(171, 72, 14);" bx:origin="0 0"/>
  <path d="M 93.925 119.896 L 93.943 160.457" style="fill: none; stroke: rgb(171, 72, 14);" bx:origin="0 0"/>
  <path d="M 93.809 93.092 L 130.859 106.674" style="fill: none; stroke: rgb(171, 72, 14);" bx:origin="0 0"/>
  <path d="M 56.315 106.374 L 93.773 120.038" style="fill: none; stroke: rgb(171, 72, 14);" bx:origin="0 0"/>
  <path d="M 55.815 146.743 L 93.274 160.407" style="fill: none; stroke: rgb(171, 72, 14);" bx:origin="0 0"/>
  <path d="M 175.568 150.118 L 175.586 190.679" style="fill: none; stroke: rgb(29, 36, 224);" bx:origin="0 0"/>
  <path d="M 175.365 150.265 L 212.416 137.156" style="fill: none; stroke: rgb(29, 36, 224);" bx:origin="0 0"/>
  <path d="M 213.007 163.683 L 213.025 204.244" style="fill: none; stroke: rgb(29, 36, 224);" bx:origin="0 0"/>
  <path d="M 212.891 136.879 L 249.941 150.461" style="fill: none; stroke: rgb(29, 36, 224);" bx:origin="0 0"/>
  <path d="M 175.397 150.161 L 212.855 163.825" style="fill: none; stroke: rgb(29, 36, 224);" bx:origin="0 0"/>
  <path d="M 212.804 163.83 L 249.855 150.721" style="fill: none; stroke: rgb(29, 36, 224);" bx:origin="0 0"/>
  <path d="M 174.897 190.53 L 212.356 204.194" style="fill: none; stroke: rgb(29, 36, 224);" bx:origin="0 0"/>
  <path d="M 250.34 177.306 L 250.358 217.867" style="fill: none; stroke: rgb(29, 36, 224);" bx:origin="0 0"/>
  <path d="M 287.456 163.944 L 287.474 204.504" style="fill: none; stroke: rgb(84, 89, 224);" bx:origin="0 0"/>
  <path d="M 250.224 150.502 L 287.274 164.084" style="fill: none; stroke: rgb(84, 89, 224);" bx:origin="0 0"/>
  <path d="M 212.73 163.784 L 250.188 177.448" style="fill: none; stroke: rgb(29, 36, 224);" bx:origin="0 0"/>
  <path d="M 250.137 177.453 L 287.188 164.344" style="fill: none; stroke: rgb(84, 89, 224);" bx:origin="0 0"/>
  <path d="M 212.23 204.153 L 249.689 217.817" style="fill: none; stroke: rgb(29, 36, 224);" bx:origin="0 0"/>
  <path d="M 249.638 217.822 L 287.099 204.302" style="fill: none; stroke: rgb(84, 89, 224);" bx:origin="0 0"/>
  <path d="M 250.341 217.622 L 250.359 258.183" style="fill: none; stroke: rgb(29, 36, 224);" bx:origin="0 0"/>
  <path d="M 287.457 204.26 L 287.475 244.82" style="fill: none; stroke: rgb(84, 89, 224);" bx:origin="0 0"/>
  <path d="M 212.938 204.26 L 212.957 244.82" style="fill: none; stroke: rgb(29, 36, 224);" bx:origin="0 0"/>
  <path d="M 212.231 244.469 L 250.107 258.064" style="fill: none; stroke: rgb(29, 36, 224);" bx:origin="0 0"/>
  <path d="M 324.705 150.652 L 324.723 191.212" style="fill: none; stroke: rgb(84, 89, 224);" bx:origin="0 0"/>
  <path d="M 287.473 137.21 L 324.523 150.792" style="fill: none; stroke: rgb(84, 89, 224);" bx:origin="0 0"/>
  <path d="M 250.141 150.489 L 287.6 137.297" style="fill: none; stroke: rgb(84, 89, 224);" bx:origin="0 0"/>
  <path d="M 287.386 164.161 L 324.437 151.052" style="fill: none; stroke: rgb(84, 89, 224);" bx:origin="0 0"/>
  <path d="M 286.887 204.879 L 324.348 191.359" style="fill: none; stroke: rgb(84, 89, 224);" bx:origin="0 0"/>
  <path d="M 406.2 120.921 L 406.218 161.481" style="fill: none; stroke: rgb(176, 84, 30);" bx:origin="0 0"/>
  <path d="M 443.447 107.629 L 443.465 148.189" style="fill: none; stroke: rgb(176, 84, 30);" bx:origin="0 0"/>
  <path d="M 406.215 94.187 L 443.265 107.769" style="fill: none; stroke: rgb(176, 84, 30);" bx:origin="0 0"/>
  <path d="M 368.883 107.466 L 406.342 94.274" style="fill: none; stroke: rgb(176, 84, 30);" bx:origin="0 0"/>
  <path d="M 406.128 121.138 L 443.179 108.029" style="fill: none; stroke: rgb(176, 84, 30);" bx:origin="0 0"/>
  <path d="M 405.629 161.507 L 443.09 147.987" style="fill: none; stroke: rgb(176, 84, 30);" bx:origin="0 0"/>
  <path d="M 480.658 94.265 L 480.676 134.825" style="fill: none; stroke: rgb(176, 84, 30);" bx:origin="0 0"/>
  <path d="M 443.426 80.823 L 480.476 94.405" style="fill: none; stroke: rgb(176, 84, 30);" bx:origin="0 0"/>
  <path d="M 406.094 94.102 L 443.553 80.91" style="fill: none; stroke: rgb(176, 84, 30);" bx:origin="0 0"/>
  <path d="M 443.339 107.774 L 480.39 94.665" style="fill: none; stroke: rgb(176, 84, 30);" bx:origin="0 0"/>
  <path d="M 442.84 148.143 L 480.301 134.623" style="fill: none; stroke: rgb(176, 84, 30);" bx:origin="0 0"/>
  <path d="M 443.542 147.859 L 443.56 188.42" style="fill: none; stroke: rgb(176, 84, 30);" bx:origin="0 0"/>
  <path d="M 480.658 134.497 L 480.676 175.057" style="fill: none; stroke: rgb(176, 84, 30);" bx:origin="0 0"/>
  <path d="M 405.866 174.851 L 442.891 188.37" style="fill: none; stroke: rgb(176, 84, 30);" bx:origin="0 0"/>
  <path d="M 442.84 188.375 L 480.301 174.855" style="fill: none; stroke: rgb(176, 84, 30);" bx:origin="0 0"/>
  <path d="M 138.236 338.371 L 138.254 378.932" style="fill: none; stroke: rgb(29, 36, 224);" bx:origin="0 0"/>
  <path d="M 92.609 362.218 L 130.068 375.882" style="fill: none; stroke: rgb(171, 72, 14);" bx:origin="0 0"/>
  <path style="fill: none; stroke: rgb(29, 36, 224);" d="M 138.111 338.472 L 174.983 352.136" bx:origin="0 0"/>
  <path d="M 138.198 379.281 L 174.484 392.505" style="fill: none; stroke: rgb(29, 36, 224);" bx:origin="0 0"/>
  <path d="M 174.433 392.51 L 211.894 378.99" style="fill: none; stroke: rgb(29, 36, 224);" bx:origin="0 0"/>
  <path d="M 56.458 227.041 L 56.476 267.602" style="fill: none; stroke: rgb(171, 72, 14);" bx:origin="0 0"/>
  <path d="M 93.574 213.679 L 93.592 254.239" style="fill: none; stroke: rgb(171, 72, 14);" bx:origin="0 0"/>
  <path d="M 19.055 213.679 L 19.074 254.239" style="fill: none; stroke: rgb(171, 72, 14);" bx:origin="0 0"/>
  <path d="M 18.848 213.519 L 56.306 227.183" style="fill: none; stroke: rgb(171, 72, 14);" bx:origin="0 0"/>
  <path d="M 56.255 227.188 L 93.306 214.079" style="fill: none; stroke: rgb(171, 72, 14);" bx:origin="0 0"/>
  <path d="M 93.575 173.569 L 93.593 214.129" style="fill: none; stroke: rgb(171, 72, 14);" bx:origin="0 0"/>
  <path d="M 19.056 173.569 L 19.075 214.129" style="fill: none; stroke: rgb(171, 72, 14);" bx:origin="0 0"/>
  <path d="M 138.276 176.949 L 138.294 217.51" style="fill: none; stroke: rgb(29, 36, 224);" bx:origin="0 0"/>
  <path d="M 93.873 160.587 L 93.892 201.147" style="fill: none; stroke: rgb(171, 72, 14);" bx:origin="0 0"/>
  <path d="M 138.173 136.554 L 138.191 177.115" style="fill: none; stroke: rgb(29, 36, 224);" bx:origin="0 0"/>
  <path d="M 131.057 106.75 L 168.107 120.332" style="fill: none; stroke: rgb(171, 72, 14);" bx:origin="0 0"/>
  <path d="M 93.563 120.032 L 131.021 133.696" style="fill: none; stroke: rgb(171, 72, 14);" bx:origin="0 0"/>
  <path d="M 93.725 120.029 L 131.184 106.837" style="fill: none; stroke: rgb(171, 72, 14);" bx:origin="0 0"/>
  <path d="M 137.97 136.701 L 175.021 123.592" style="fill: none; stroke: rgb(29, 36, 224);" bx:origin="0 0"/>
  <path d="M 93.063 160.401 L 130.522 174.065" style="fill: none; stroke: rgb(171, 72, 14);" bx:origin="0 0"/>
  <path d="M 175.422 123.246 L 212.472 136.827" style="fill: none; stroke: rgb(29, 36, 224);" bx:origin="0 0"/>
  <path d="M 137.928 136.528 L 175.386 150.192" style="fill: none; stroke: rgb(29, 36, 224);" bx:origin="0 0"/>
  <path d="M 138.289 176.992 L 174.887 190.56" style="fill: none; stroke: rgb(29, 36, 224);" bx:origin="0 0"/>
  <path d="M 175.538 190.54 L 175.556 231.101" style="fill: none; stroke: rgb(29, 36, 224);" bx:origin="0 0"/>
  <path d="M 56.618 187.205 L 56.637 227.765" style="fill: none; stroke: rgb(171, 72, 14);" bx:origin="0 0"/>
  <path d="M 138.197 217.184 L 138.215 257.745" style="fill: none; stroke: rgb(29, 36, 224);" bx:origin="0 0"/>
  <path d="M 93.587 200.662 L 131.045 214.326" style="fill: none; stroke: rgb(171, 72, 14);" bx:origin="0 0"/>
  <path d="M 175.579 230.811 L 175.597 271.372" style="fill: none; stroke: rgb(29, 36, 224);" bx:origin="0 0"/>
  <path d="M 137.969 217.289 L 175.427 230.953" style="fill: none; stroke: rgb(29, 36, 224);" bx:origin="0 0"/>
  <path d="M 175.376 230.958 L 212.427 217.849" style="fill: none; stroke: rgb(29, 36, 224);" bx:origin="0 0"/>
  <path d="M 174.877 271.327 L 212.338 257.807" style="fill: none; stroke: rgb(29, 36, 224);" bx:origin="0 0"/>
  <path d="M 212.961 244.438 L 212.979 284.999" style="fill: none; stroke: rgb(29, 36, 224);" bx:origin="0 0"/>
  <path d="M 174.851 271.285 L 212.31 284.949" style="fill: none; stroke: rgb(29, 36, 224);" bx:origin="0 0"/>
  <path d="M 250.342 258.065 L 250.36 298.626" style="fill: none; stroke: rgb(29, 36, 224);" bx:origin="0 0"/>
  <path d="M 287.458 244.703 L 287.476 285.263" style="fill: none; stroke: rgb(84, 89, 224);" bx:origin="0 0"/>
  <path d="M 250.139 258.212 L 287.19 245.103" style="fill: none; stroke: rgb(84, 89, 224);" bx:origin="0 0"/>
  <path d="M 212.232 284.912 L 249.691 298.576" style="fill: none; stroke: rgb(29, 36, 224);" bx:origin="0 0"/>
  <path d="M 250.158 298.577 L 250.176 339.138" style="fill: none; stroke: rgb(29, 36, 224);" bx:origin="0 0"/>
  <path d="M 287.14 285.349 L 287.158 325.909" style="fill: none; stroke: rgb(84, 89, 224);" bx:origin="0 0"/>
  <path d="M 212.755 285.215 L 212.774 325.775" style="fill: none; stroke: rgb(29, 36, 224);" bx:origin="0 0"/>
  <path d="M 249.955 298.724 L 287.006 285.615" style="fill: none; stroke: rgb(84, 89, 224);" bx:origin="0 0"/>
  <path d="M 93.602 280.986 L 93.62 321.547" style="fill: none; stroke: rgb(171, 72, 14);" bx:origin="0 0"/>
  <path d="M 93.412 281.295 L 130.871 268.103" style="fill: none; stroke: rgb(171, 72, 14);" bx:origin="0 0"/>
  <path d="M 92.75 321.667 L 130.209 335.331" style="fill: none; stroke: rgb(171, 72, 14);" bx:origin="0 0"/>
  <path d="M 138.045 257.426 L 138.063 297.987" style="fill: none; stroke: rgb(29, 36, 224);" bx:origin="0 0"/>
  <path d="M 92.935 281.273 L 130.394 294.937" style="fill: none; stroke: rgb(171, 72, 14);" bx:origin="0 0"/>
  <path d="M 175.303 270.89 L 175.321 311.451" style="fill: none; stroke: rgb(29, 36, 224);" bx:origin="0 0"/>
  <path d="M 137.693 257.368 L 175.151 271.032" style="fill: none; stroke: rgb(29, 36, 224);" bx:origin="0 0"/>
  <path d="M 137.926 297.737 L 174.652 311.401" style="fill: none; stroke: rgb(29, 36, 224);" bx:origin="0 0"/>
  <path d="M 175.303 311.284 L 175.321 351.845" style="fill: none; stroke: rgb(29, 36, 224);" bx:origin="0 0"/>
  <path d="M 174.82 311.571 L 212.279 325.235" style="fill: none; stroke: rgb(29, 36, 224);" bx:origin="0 0"/>
  <path d="M 56.588 106.317 L 56.606 146.878" style="fill: none; stroke: rgb(171, 72, 14);" bx:origin="0 0"/>
  <path d="M 19.185 92.955 L 19.204 133.515" style="fill: none; stroke: rgb(171, 72, 14);" bx:origin="0 0"/>
  <path d="M 18.978 92.795 L 56.436 106.459" style="fill: none; stroke: rgb(171, 72, 14);" bx:origin="0 0"/>
  <path d="M 19.14 92.791 L 56.599 79.6" style="fill: none; stroke: rgb(171, 72, 14);" bx:origin="0 0"/>
  <path d="M 324.086 313.092 L 324.104 353.653" style="fill: none; stroke: rgb(84, 89, 224);" bx:origin="0 0"/>
  <path d="M 361.202 299.73 L 361.22 340.29" style="fill: none; stroke: rgb(84, 89, 224);" bx:origin="0 0"/>
  <path d="M 287.01 299.704 L 323.934 313.234" style="fill: none; stroke: rgb(84, 89, 224);" bx:origin="0 0"/>
  <path d="M 323.883 313.239 L 360.934 300.13" style="fill: none; stroke: rgb(84, 89, 224);" bx:origin="0 0"/>
  <path d="M 323.384 353.608 L 360.845 340.088" style="fill: none; stroke: rgb(84, 89, 224);" bx:origin="0 0"/>
  <path d="M 324.212 272.659 L 324.23 313.22" style="fill: none; stroke: rgb(84, 89, 224);" bx:origin="0 0"/>
  <path d="M 361.328 259.297 L 361.346 299.857" style="fill: none; stroke: rgb(84, 89, 224);" bx:origin="0 0"/>
  <path d="M 287.366 259.276 L 324.06 272.801" style="fill: none; stroke: rgb(84, 89, 224);" bx:origin="0 0"/>
  <path d="M 324.009 272.806 L 361.06 259.697" style="fill: none; stroke: rgb(84, 89, 224);" bx:origin="0 0"/>
  <path d="M 324.401 232.284 L 324.419 272.845" style="fill: none; stroke: rgb(84, 89, 224);" bx:origin="0 0"/>
  <path d="M 361.517 218.922 L 361.535 259.482" style="fill: none; stroke: rgb(84, 89, 224);" bx:origin="0 0"/>
  <path d="M 286.791 218.762 L 324.249 232.426" style="fill: none; stroke: rgb(84, 89, 224);" bx:origin="0 0"/>
  <path d="M 324.198 232.431 L 361.249 219.322" style="fill: none; stroke: rgb(84, 89, 224);" bx:origin="0 0"/>
  <path d="M 324.589 192.286 L 324.607 232.847" style="fill: none; stroke: rgb(84, 89, 224);" bx:origin="0 0"/>
  <path d="M 361.705 178.924 L 361.723 219.484" style="fill: none; stroke: rgb(84, 89, 224);" bx:origin="0 0"/>
  <path d="M 324.473 164.507 L 361.523 178.089" style="fill: none; stroke: rgb(84, 89, 224);" bx:origin="0 0"/>
  <path d="M 324.386 191.433 L 361.437 178.324" style="fill: none; stroke: rgb(84, 89, 224);" bx:origin="0 0"/>
  <path d="M 443.087 229.709 L 443.105 270.269" style="fill: none; stroke: rgb(176, 84, 30);" bx:origin="0 0"/>
  <path d="M 479.908 216.347 L 479.926 256.907" style="fill: none; stroke: rgb(176, 84, 30);" bx:origin="0 0"/>
  <path d="M 443.33 188.704 L 443.347 229.265" style="fill: none; stroke: rgb(176, 84, 30);" bx:origin="0 0"/>
  <path d="M 480.249 175.44 L 480.267 216" style="fill: none; stroke: rgb(176, 84, 30);" bx:origin="0 0"/>
  <path d="M 405.522 215.849 L 442.483 229.313" style="fill: none; stroke: rgb(176, 84, 30);" bx:origin="0 0"/>
  <path d="M 442.431 229.318 L 479.892 215.798" style="fill: none; stroke: rgb(176, 84, 30);" bx:origin="0 0"/>
  <path d="M 368.95 134.512 L 368.968 175.073" style="fill: none; stroke: rgb(176, 84, 30);" bx:origin="0 0"/>
  <path d="M 331.872 121.15 L 331.891 161.71" style="fill: none; stroke: rgb(176, 84, 30);" bx:origin="0 0"/>
  <path d="M 369.159 107.708 L 406.209 121.29" style="fill: none; stroke: rgb(176, 84, 30);" bx:origin="0 0"/>
  <path d="M 331.665 120.99 L 369.123 134.654" style="fill: none; stroke: rgb(176, 84, 30);" bx:origin="0 0"/>
  <path d="M 331.827 120.987 L 369.286 107.795" style="fill: none; stroke: rgb(176, 84, 30);" bx:origin="0 0"/>
  <path d="M 369.072 134.659 L 406.123 121.55" style="fill: none; stroke: rgb(176, 84, 30);" bx:origin="0 0"/>
  <path d="M 368.573 175.028 L 406.034 161.508" style="fill: none; stroke: rgb(176, 84, 30);" bx:origin="0 0"/>
  <path d="M 368.426 336.898 L 368.444 377.459" style="fill: none; stroke: rgb(176, 84, 30);" bx:origin="0 0"/>
  <path d="M 368.223 337.045 L 405.274 323.936" style="fill: none; stroke: rgb(176, 84, 30);" bx:origin="0 0"/>
  <path d="M 331.066 363.995 L 367.775 377.409" style="fill: none; stroke: rgb(176, 84, 30);" bx:origin="0 0"/>
  <path d="M 367.724 377.414 L 405.185 363.894" style="fill: none; stroke: rgb(176, 84, 30);" bx:origin="0 0"/>
  <path d="M 405.333 283.379 L 405.351 323.939" style="fill: none; stroke: rgb(176, 84, 30);" bx:origin="0 0"/>
  <path d="M 368.014 296.888 L 405.065 283.779" style="fill: none; stroke: rgb(176, 84, 30);" bx:origin="0 0"/>
  <path d="M 405.189 243.246 L 405.207 283.806" style="fill: none; stroke: rgb(176, 84, 30);" bx:origin="0 0"/>
  <path d="M 367.87 256.755 L 404.921 243.646" style="fill: none; stroke: rgb(176, 84, 30);" bx:origin="0 0"/>
  <path d="M 405.468 203.112 L 405.486 243.672" style="fill: none; stroke: rgb(176, 84, 30);" bx:origin="0 0"/>
  <path d="M 368.989 215.97 L 406.04 202.861" style="fill: none; stroke: rgb(176, 84, 30);" bx:origin="0 0"/>
  <path d="M 406.144 162.132 L 406.128 202.819" style="fill: none; stroke: rgb(176, 84, 30);" bx:origin="0 0"/>
</svg>